# xmcd
#
# Track frame offsets:
#	150
#	27665
#	53083
#	76943
#	98805
#	124543
#	146458
#	173248
#	196258
#	215378
#	244483
#	268833
#	289583
#
# Disc length: 3893 seconds
#
# Revision: 7
# Processed by: cddbd v1.5.2PL0 Copyright (c) Steve Scherf et al.
# Submitted via: EZCDAudioConverter 2.5.0.1
#
DISCID=bb0f330d
DTITLE=Khanh Ly, Le Thu - Nhu Canh Vac Bay
DYEAR=1988
DGENRE=Vietnamese
TTITLE0=Khanh Ly, Le Thu - Tieng sao thien thai
TTITLE1=Khanh Ly - Tieng hat da lan
TTITLE2=Le Thu - Hoai cam
TTITLE3=Khanh Ly, Le Thu - Nhu canh vac bay
TTITLE4=Khanh Ly - Nang thuy tinh
TTITLE5=Khanh Ly, Le Thu - Tuoi xa nguoi
TTITLE6=Khanh Ly, Le Thu - Giot mua tren la
TTITLE7=Le Thu - Huong xua
TTITLE8=Khanh Ly - Cat bui
TTITLE9=Khanh Ly, Le Thu - Hoa rung ven song
TTITLE10=Le Thu - Gui gio cho may ngan bay
TTITLE11=Khanh Ly, Le Thu - Tieng thu
TTITLE12=Thu Huong - Loi ket
EXTD=
EXTT0=
EXTT1=
EXTT2=
EXTT3=
EXTT4=
EXTT5=
EXTT6=
EXTT7=
EXTT8=
EXTT9=
EXTT10=
EXTT11=
EXTT12=
PLAYORDER=
